#N canvas 1864 97 1249 1849 12;
#X msg 24 30 devices;
#X msg 134 34 close;
#X obj 20 244 oscparse, f 10;
#X obj 20 391 tgl 19 0 empty empty empty 0 -10 0 12 #fcfcfc #000000 #000000 0 1;
#X obj 146 334 nbx 5 17 -1e+37 1e+37 0 0 empty empty empty 0 -10 0 12 #fcfcfc #000000 #000000 0 256;
#X obj 20 560 tgl 19 0 empty empty empty 0 -10 0 12 #fcfcfc #000000 #000000 0 1;
#X text 59 563 interrupteur;
#X text 95 439 LIEN DIRECT;
#X msg 389 766 127;
#X obj 388 987 oscformat -f i vkb_midi 1 note 72;
#X text 442 749 La note MIDI 72 à pleine vélocité est déclenchée sur le canal MIDI 2 et joue le WaveTable 5th Wheel;
#X obj 22 218 list trim;
#X obj 266 180 print OSC;
#X obj 20 271 list trim;
#X obj 20 315 route but pot;
#X obj 21 129 comport;
#X msg 153 92 baud 115200 \, open 4;
#X obj 21 179 pdchoco/slip_parse;
#X obj 872 409 pdchoco/stream_flip_flop;
#X obj 872 442 change;
#X text 653 443 LIEN FLIP FLOP;
#X obj 780 443 bng 19 250 50 0 empty empty empty 0 -10 0 12 #fcfcfc #000000 #000000;
#X obj 711 1437 netsend -u -b;
#X obj 176 984 oscformat -f f play;
#X obj 20 983 oscformat -f f stop;
#X obj 59 1620 oscformat -f f master volume;
#X obj 61 1572 nbx 5 17 -1e+37 1e+37 0 0 empty empty empty 0 -10 0 12 #fcfcfc #000000 #000000 0 256;
#X obj 64 1530 hsl 162 19 0 1 0 0 empty empty empty -2 -10 0 12 #fcfcfc #000000 #000000 0 1;
#X obj 20 617 select 0 1;
#X obj 20 699 bng 19 250 50 0 empty empty empty 0 -10 0 12 #fcfcfc #000000 #000000;
#X obj 177 700 bng 19 250 50 0 empty empty empty 0 -10 0 12 #fcfcfc #000000 #000000;
#X msg 57 1420 connect 127.0.0.1 9888;
#X text 55 1455 Reaper reçoit (listen) les messages OSC sur le port 9888;
#X msg 177 766 1;
#X msg 20 768 0;
#X text 221 764 pour partir la piste;
#X text 57 1652 pour contrôler le volume du Master;
#X obj 389 576 tgl 19 0 empty empty empty 0 -10 0 12 #fcfcfc #000000 #000000 0 1;
#X text 428 579 interrupteur;
#X obj 389 633 select 0 1;
#X obj 389 692 bng 19 250 50 0 empty empty empty 0 -10 0 12 #fcfcfc #000000 #000000;
#X obj 871 564 tgl 19 0 empty empty empty 0 -10 0 12 #fcfcfc #000000 #000000 0 1;
#X text 910 567 interrupteur;
#X obj 871 621 select 0 1;
#X obj 871 703 bng 19 250 50 0 empty empty empty 0 -10 0 12 #fcfcfc #000000 #000000;
#X obj 1028 704 bng 19 250 50 0 empty empty empty 0 -10 0 12 #fcfcfc #000000 #000000;
#X msg 1028 770 1;
#X msg 871 772 0;
#X text 1072 768 pour partir la piste;
#X obj 20 438 change;
#X connect 0 0 15 0;
#X connect 1 0 15 0;
#X connect 2 0 12 0;
#X connect 2 0 13 0;
#X connect 3 0 18 0;
#X connect 3 0 49 0;
#X connect 5 0 28 0;
#X connect 8 0 9 0;
#X connect 9 0 22 0;
#X connect 11 0 2 0;
#X connect 13 0 14 0;
#X connect 14 0 3 0;
#X connect 14 1 4 0;
#X connect 15 0 17 0;
#X connect 16 0 15 0;
#X connect 17 0 11 0;
#X connect 18 0 19 0;
#X connect 19 0 21 0;
#X connect 19 0 41 0;
#X connect 23 0 22 0;
#X connect 24 0 22 0;
#X connect 25 0 22 0;
#X connect 26 0 25 0;
#X connect 27 0 26 0;
#X connect 28 0 30 0;
#X connect 28 1 29 0;
#X connect 29 0 34 0;
#X connect 30 0 33 0;
#X connect 31 0 22 0;
#X connect 33 0 23 0;
#X connect 34 0 24 0;
#X connect 37 0 39 0;
#X connect 39 0 40 0;
#X connect 40 0 8 0;
#X connect 41 0 43 0;
#X connect 43 0 44 0;
#X connect 43 1 45 0;
#X connect 44 0 47 0;
#X connect 45 0 46 0;
#X connect 49 0 5 0;
#X connect 49 0 37 0;
