#N canvas 620 79 1341 841 12;
#X msg 20 7 devices;
#X msg 88 7 close;
#X obj 20 139 oscparse, f 10;
#X obj 20 280 tgl 19 0 empty empty empty 0 -10 0 12 #fcfcfc #000000 #000000 0 1;
#X obj 825 294 nbx 5 17 -1e+37 1e+37 0 0 empty empty empty 0 -10 0 12 #fcfcfc #000000 #000000 0 256;
#X obj 20 380 tgl 19 0 empty empty empty 0 -10 0 12 #fcfcfc #000000 #000000 0 1;
#X text 51 380 interrupteur;
#X text 95 329 LIEN DIRECT;
#X obj 20 108 list trim;
#X obj 150 159 print OSC;
#X obj 20 175 list trim;
#X obj 20 228 route but pot;
#X obj 20 46 comport;
#X msg 144 7 baud 115200 \, open 4;
#X obj 20 77 pdchoco/slip_parse;
#X obj 427 299 pdchoco/stream_flip_flop;
#X obj 427 330 change;
#X text 496 334 LIEN FLIP FLOP;
#X obj 457 914 netsend -u -b;
#X obj 176 596 oscformat -f f play;
#X obj 20 595 oscformat -f f stop;
#X obj 16 894 oscformat -f f master volume;
#X obj 18 846 nbx 5 17 -1e+37 1e+37 0 0 empty empty empty 0 -10 0 12 #fcfcfc #000000 #000000 0 256;
#X obj 21 804 hsl 162 19 0 1 0 0 empty empty empty -2 -10 0 12 #fcfcfc #000000 #000000 0 1;
#X obj 20 409 select 0 1;
#X obj 20 463 bng 19 250 50 0 empty empty empty 0 -10 0 12 #fcfcfc #000000 #000000;
#X obj 177 464 bng 19 250 50 0 empty empty empty 0 -10 0 12 #fcfcfc #000000 #000000;
#X msg 14 694 connect 127.0.0.1 9888;
#X text 14 729 Reaper reçoit (listen) les messages OSC sur le port 9888, f 23;
#X msg 69 532 1;
#X text 113 530 pour partir la piste;
#X text 14 926 pour contrôler le volume du Master;
#X obj 20 328 change;
#X text 456 376 interrupteur;
#X obj 427 403 select 0 1;
#X obj 427 375 tgl 19 0 empty empty empty 0 -10 0 12 #fcfcfc #000000 #000000 0 1;
#X obj 731 423 bng 19 250 50 0 empty empty empty 0 -10 0 12 #fcfcfc #000000 #000000;
#X obj 464 654 oscformat -f i vkb_midi 1 note 72;
#X text 507 585 La note MIDI 72 à pleine vélocité est déclenchée sur le canal MIDI 2 et joue le WaveTable 5th Wheel, f 27;
#X msg 464 607 127;
#X msg 20 532 1;
#X text 774 586 La note MIDI 48 à moitiée de vélocité maximale sur le canal MIDI 4 et joue le WaveTable ARP Hype Pulse II, f 27;
#X msg 731 608 127;
#X obj 731 655 oscformat -f i vkb_midi 3 note 48;
#X obj 987 652 oscformat -f i vkb_midi 3 cc 13;
#X text 1030 583 Le Mix du REVERB du WaveTable ARP Hype Pulse II doit arriver à 50% de son maximum., f 25;
#X obj 987 500 / 4095;
#X obj 987 546 nbx 5 17 -1e+37 1e+37 0 0 empty empty empty 0 -10 0 12 #fcfcfc #000000 #000000 0 256;
#X obj 987 453 * 63;
#X connect 0 0 12 0;
#X connect 1 0 12 0;
#X connect 2 0 9 0;
#X connect 2 0 10 0;
#X connect 3 0 15 0;
#X connect 3 0 32 0;
#X connect 4 0 48 0;
#X connect 5 0 24 0;
#X connect 8 0 2 0;
#X connect 10 0 11 0;
#X connect 11 0 3 0;
#X connect 11 1 4 0;
#X connect 12 0 14 0;
#X connect 13 0 12 0;
#X connect 14 0 8 0;
#X connect 15 0 16 0;
#X connect 16 0 35 0;
#X connect 19 0 18 0;
#X connect 20 0 18 0;
#X connect 21 0 18 0;
#X connect 22 0 21 0;
#X connect 23 0 22 0;
#X connect 24 0 25 0;
#X connect 24 1 26 0;
#X connect 25 0 40 0;
#X connect 26 0 29 0;
#X connect 26 0 39 0;
#X connect 27 0 18 0;
#X connect 29 0 19 0;
#X connect 32 0 5 0;
#X connect 34 1 36 0;
#X connect 35 0 34 0;
#X connect 36 0 42 0;
#X connect 37 0 18 0;
#X connect 39 0 37 0;
#X connect 40 0 20 0;
#X connect 42 0 43 0;
#X connect 43 0 18 0;
#X connect 44 0 18 0;
#X connect 46 0 47 0;
#X connect 47 0 44 0;
#X connect 48 0 46 0;
