#N canvas 2415 103 1523 751 12;
#X obj 880 633 netsend -u -b;
#X obj 1046 266 oscformat -f f play;
#X obj 890 268 oscformat -f f stop;
#X msg 889 221 1;
#X obj 1047 529 oscformat -f f master volume;
#X obj 1049 481 nbx 5 17 -1e+37 1e+37 0 0 empty empty empty 0 -10 0 12 #fcfcfc #000000 #000000 0 256;
#X obj 1052 439 hsl 162 19 0 1 0 0 empty empty empty -2 -10 0 12 #fcfcfc #000000 #000000 0 1;
#X msg 24 30 devices;
#X msg 124 49 close;
#X obj 20 244 oscparse, f 10;
#X obj 34 138 comport;
#X obj 20 178 pdchoco/slip_parse;
#X obj 20 391 tgl 19 0 empty empty empty 0 -10 0 12 #fcfcfc #000000 #000000 0 1;
#X obj 81 358 nbx 5 17 -1e+37 1e+37 0 0 empty empty empty 0 -10 0 12 #fcfcfc #000000 #000000 0 256;
#X obj 943 98 select 0 1;
#X msg 941 35 0;
#X msg 994 37 1;
#X obj 889 152 bng 19 250 50 0 empty empty empty 0 -10 0 12 #fcfcfc #000000 #000000;
#X obj 1046 153 bng 19 250 50 0 empty empty empty 0 -10 0 12 #fcfcfc #000000 #000000;
#X obj 776 35 tgl 19 0 empty empty empty 0 -10 0 12 #fcfcfc #000000 #000000 0 1;
#X text 811 36 interrupteur;
#X obj 20 442 change;
#X text 73 442 LIEN DIRECT;
#X msg 628 212 127;
#X msg 677 212 0;
#X obj 578 616 oscformat -f i vkb_midi 0 cc 14;
#X text 552 644 message OSC pour le freq du MIDI Keyboard;
#X text 646 665 ** j'ai choisi le chiffre 14;
#X floatatom 578 584 5 0 0 0 - - - 0;
#X obj 444 418 * 127;
#X obj 444 455 / 4095;
#X obj 444 490 pdchoco/stream_smooth 0.01 0.01;
#X obj 310 583 pdchoco/scope 0 127;
#X obj 594 264 oscformat -f i vkb_midi 1 note 72;
#X msg 1058 604 connect 127.0.0.1 9888;
#X text 440 298 La note MIDI 72 à pleine vélocité est déclenchée sur le canal MIDI 2 et joue le WaveTable 5th Wheel;
#X text 1020 627 Reaper reçoit (listen) les messages OSC sur le port 9888;
#X msg 153 92 baud 115200 \, open 5;
#X obj 20 217 list trim;
#X obj 266 180 print OSC;
#X obj 20 271 list trim;
#X obj 20 315 route but pot;
#X msg 1046 219 1;
#X connect 1 0 0 0;
#X connect 2 0 0 0;
#X connect 3 0 2 0;
#X connect 4 0 0 0;
#X connect 5 0 4 0;
#X connect 6 0 5 0;
#X connect 7 0 10 0;
#X connect 8 0 10 0;
#X connect 9 0 39 0;
#X connect 9 0 40 0;
#X connect 10 0 11 0;
#X connect 11 0 38 0;
#X connect 12 0 21 0;
#X connect 13 0 29 0;
#X connect 14 0 17 0;
#X connect 14 1 18 0;
#X connect 15 0 14 0;
#X connect 16 0 14 0;
#X connect 17 0 3 0;
#X connect 18 0 42 0;
#X connect 19 0 14 0;
#X connect 21 0 19 0;
#X connect 23 0 33 0;
#X connect 24 0 33 0;
#X connect 25 0 0 0;
#X connect 28 0 25 0;
#X connect 29 0 30 0;
#X connect 30 0 31 0;
#X connect 31 0 28 0;
#X connect 31 0 32 0;
#X connect 33 0 0 0;
#X connect 34 0 0 0;
#X connect 37 0 10 0;
#X connect 38 0 9 0;
#X connect 40 0 41 0;
#X connect 41 0 12 0;
#X connect 41 1 13 0;
#X connect 42 0 1 0;
